#!OML:ASF I:\Actors\actors\Patient Classification 1\Patient 1\Session 1\Subject1.ASF
:FULLY-SPECIFIED
:DEGREES
400
root 0.933494 17.5898 8.71231 7.24245 -3.10272 -9.10838
lowerback -2.60088 2.69384 7.95212
upperback -5.03028 3.58642 0.17827
thorax -3.30693 1.5184 -4.25659
lowerneck -10.3087 -7.27698 -4.93074
upperneck 11.0134 -11.0822 14.0939
head 6.13098 -4.66457 4.27718
rclavicle -1.39149e-015 -6.36111e-015
rhumerus -44.7332 38.8146 -112.388
rradius 112.389
rwrist -12.9508
rhand -10.1089 -43.4488
rfingers 7.12502
rthumb 15.8788 -72.8178
lclavicle -1.39149e-015 -6.36111e-015
lhumerus -47.8588 -40.6067 108.106
lradius 109.486
lwrist 19.6038
lhand -40.2533 -45.1928
lfingers 7.12502
lthumb -13.2119 -15.6315
rfemur -4.9794 21.2025 26.0094
rtibia 7.95955
rfoot -14.0726 -17.8482
rtoes -0.77054
lfemur 4.82199 -35.1713 -11.0628
ltibia -2.09475
lfoot -18.0876 45.1061
ltoes 5.8485
401
root 0.936781 17.6042 8.6926 7.28132 -3.08879 -9.02029
lowerback -2.70995 2.84928 8.19491
upperback -4.63606 3.75654 -0.0760322
thorax -2.77996 1.62436 -4.63495
lowerneck -10.0213 -7.23452 -4.75982
upperneck 10.0803 -10.9657 14.3659
head 5.78748 -4.63555 4.35837
rclavicle -2.45996e-014 1.59028e-015
rhumerus -45.1668 37.8242 -112.177
rradius 113.16
rwrist -14.2672
rhand -8.881 -44.9364
rfingers 7.12502
rthumb 17.061 -74.2072
lclavicle -2.45996e-014 1.59028e-015
lhumerus -48.4726 -42.0292 108.003
lradius 108.571
lwrist 15.4852
lhand -42.3564 -47.6003
lfingers 7.12502
lthumb -15.2385 -18.1816
rfemur -5.20148 21.1442 25.8352
rtibia 8.10242
rfoot -14.0663 -17.7956
rtoes -0.741319
lfemur 4.26933 -34.4395 -10.822
ltibia -1.76016
lfoot -17.4703 44.4154
ltoes 4.94778
402
root 0.938109 17.618 8.66661 7.30664 -2.9606 -8.85023
lowerback -2.78753 2.9376 8.29832
upperback -4.22996 3.84193 -0.313383
thorax -2.27699 1.69431 -4.91983
lowerneck -9.88825 -7.17967 -4.85183
upperneck 9.50284 -10.8753 14.9124
head 5.61687 -4.59176 4.56122
rclavicle 5.81445e-015 4.6118e-014
rhumerus -45.1056 38.1633 -111.414
rradius 113.794
rwrist -16.7711
rhand -8.35885 -46.4127
rfingers 7.12502
rthumb 17.5635 -75.6393
lclavicle 5.81445e-015 4.6118e-014
lhumerus -49.2124 -43.5444 107.867
lradius 108.126
lwrist 12.4843
lhand -44.2222 -49.9579
lfingers 7.12502
lthumb -17.0351 -20.6848
rfemur -5.45669 21.0279 25.5622
rtibia 8.25609
rfoot -14.0322 -17.8385
rtoes -0.455313
lfemur 3.58902 -33.6647 -10.595
ltibia -1.35028
lfoot -16.7586 43.5905
ltoes 3.89235
403
root 0.938953 17.6318 8.63951 7.33374 -2.77515 -8.84527
lowerback -2.84796 2.98026 8.37216
upperback -3.84561 3.87301 -0.392428
thorax -1.82655 1.73832 -5.02591
lowerneck -9.61589 -7.08889 -4.72304
upperneck 8.74395 -10.6951 15.1438
head 5.32575 -4.53189 4.64138
rclavicle 1.4064e-014 2.38542e-015
rhumerus -44.8833 38.7374 -110.468
rradius 114.377
rwrist -19.8804
rhand -8.41208 -47.4454
rfingers 7.12502
rthumb 17.5123 -76.6766
lclavicle 1.4064e-014 2.38542e-015
lhumerus -49.8723 -45.0852 107.696
lradius 108.048
lwrist 10.4155
lhand -45.4995 -51.6641
lfingers 7.12502
lthumb -18.2643 -22.5016
rfemur -5.688 20.8991 25.4961
rtibia 8.40798
rfoot -14.0035 -17.9085
rtoes -0.450321
lfemur 3.00446 -33.1019 -10.2362
ltibia -1.02982
lfoot -16.2651 42.9224
ltoes 3.21349
404
root 0.93774 17.6461 8.61289 7.37675 -2.55701 -8.97945
lowerback -2.90053 2.98563 8.29483
upperback -3.494 3.86133 -0.25891
thorax -1.44404 1.76274 -4.82913
lowerneck -9.30219 -6.99307 -4.56212
upperneck 8.00481 -10.48 15.1228
head 5.01387 -4.47056 4.64092
rclavicle -1.31446e-014 2.62396e-014
rhumerus -44.5998 39.4593 -109.465
rradius 114.919
rwrist -22.1293
rhand -8.76498 -47.8963
rfingers 7.12502
rthumb 17.1727 -77.1575
lclavicle -1.31446e-014 2.62396e-014
lhumerus -50.1593 -46.4688 107.441
lradius 108.156
lwrist 9.12207
lhand -46.2767 -52.9777
lfingers 7.12502
lthumb -19.0118 -23.8869
rfemur -5.91312 20.7562 25.606
rtibia 8.56363
rfoot -13.9978 -17.9439
rtoes -0.809548
lfemur 2.47148 -32.6643 -9.74433
ltibia -0.760311
lfoot -15.9599 42.3349
ltoes 2.689
405
root 0.93383 17.6596 8.58562 7.44226 -2.2893 -9.02531
lowerback -2.95537 3.01016 8.17899
upperback -3.13712 3.87472 -0.174834
thorax -1.05094 1.79947 -4.66136
lowerneck -9.08963 -6.96587 -4.47454
upperneck 7.3264 -10.3477 15.0193
head 4.74676 -4.44899 4.61548
rclavicle -2.87306e-016 4.77083e-015
rhumerus -43.9802 39.8416 -108.283
rradius 115.586
rwrist -22.7318
rhand -8.53283 -47.8783
rfingers 7.12502
rthumb 17.3961 -77.1198
lclavicle -2.87306e-016 4.77083e-015
lhumerus -49.9078 -47.6986 106.881
lradius 108.529
lwrist 8.67907
lhand -47.0948 -54.1051
lfingers 7.12502
lthumb -19.7984 -25.0934
rfemur -6.16334 20.5852 25.6138
rtibia 8.71141
rfoot -14.0247 -17.998
rtoes -0.882543
lfemur 1.91689 -32.2732 -9.34796
ltibia -0.513158
lfoot -15.4987 41.7887
ltoes 1.88805
406
root 0.929275 17.6694 8.56121 7.46228 -2.02307 -8.96182
lowerback -2.92704 3.0414 8.13894
upperback -2.8081 3.90437 -0.234024
thorax -0.717956 1.83797 -4.6896
lowerneck -8.94815 -6.91211 -4.28562
upperneck 6.747 -10.1996 14.8525
head 4.51272 -4.41209 4.5534
rclavicle -1.881e-014 2.94201e-014
rhumerus -42.9817 39.7087 -107.09
rradius 116.492
rwrist -22.83
rhand -7.86825 -48.152
rfingers 7.12502
rthumb 18.0356 -77.3357
lclavicle -1.881e-014 2.94201e-014
lhumerus -49.3255 -48.6257 106.016
lradius 109.221
lwrist 8.64297
lhand -47.6423 -54.547
lfingers 7.12502
lthumb -20.3246 -25.5905
rfemur -6.31898 20.4103 25.5162
rtibia 8.79651
rfoot -14.0862 -18.0488
rtoes -0.385892
lfemur 1.55447 -32.1058 -9.21882
ltibia -0.361995
lfoot -15.0055 41.4638
ltoes 1.22287
407
root 0.925081 17.6753 8.5386 7.46871 -1.75187 -8.99929
lowerback -2.85124 3.03432 8.07451
upperback -2.54305 3.89152 -0.189667
thorax -0.492977 1.84961 -4.60335
lowerneck -8.77587 -6.73986 -3.93923
upperneck 6.31919 -9.91199 14.5156
head 4.28933 -4.30535 4.4258
rclavicle -2.8302e-014 -7.95139e-016
rhumerus -41.9604 39.232 -106.172
rradius 117.576
rwrist -23.3183
rhand -7.85838 -49.049
rfingers 7.12502
rthumb 18.0451 -78.2319
lclavicle -2.8302e-014 -7.95139e-016
lhumerus -48.6184 -49.1624 105.335
lradius 110.146
lwrist 8.57077
lhand -47.8 -54.4669
lfingers 7.12502
lthumb -20.4762 -25.5266
rfemur -6.45024 20.2068 25.5414
rtibia 8.88496
rfoot -14.1395 -18.068
rtoes -0.0751593
lfemur 1.30211 -32.1813 -9.04249
ltibia -0.274953
lfoot -14.766 41.3373
ltoes 1.02066
408
root 0.918844 17.6825 8.50837 7.59061 -1.494 -9.23582
lowerback -2.7135 3.05019 8.03698
upperback -2.3391 3.9176 0.0137781
thorax -0.370503 1.8749 -4.37098
lowerneck -8.63051 -6.56713 -3.83719
upperneck 5.8209 -9.59803 14.2793
head 4.06645 -4.18796 4.37035
rclavicle -1.91082e-014 3.18055e-015
rhumerus -40.9656 38.643 -105.396
rradius 118.734
rwrist -23.648
rhand -8.73765 -49.966
rfingers 7.12502
rthumb 17.199 -79.2249
lclavicle -1.91082e-014 3.18055e-015
lhumerus -47.6681 -49.5531 104.894
lradius 111.225
lwrist 8.18076
lhand -48.0839 -54.9906
lfingers 7.12502
lthumb -20.749 -26.0799
rfemur -6.81068 20.121 25.7493
rtibia 9.08848
rfoot -14.145 -18.1902
rtoes -0.210202
lfemur 0.800055 -32.1294 -8.43503
ltibia -0.171718
lfoot -14.6586 41.1251
ltoes 1.113
409
root 0.911211 17.693 8.47328 7.81146 -1.27751 -9.37982
lowerback -2.57377 3.07099 7.88693
upperback -2.14798 3.95282 0.213596
thorax -0.268384 1.90429 -4.08047
lowerneck -8.82716 -6.48714 -4.01636
upperneck 5.60081 -9.43547 14.2599
head 4.02539 -4.11428 4.40261
rclavicle -1.31943e-014 1.90833e-014
rhumerus -39.9576 38.1911 -104.712
rradius 119.923
rwrist -22.884
rhand -9.77647 -50.4318
rfingers 7.12502
rthumb 16.1989 -79.775
lclavicle -1.31943e-014 1.90833e-014
lhumerus -46.4228 -49.7957 104.313
lradius 112.383
lwrist 7.53891
lhand -48.6772 -56.5352
lfingers 7.12502
lthumb -21.319 -27.6879
rfemur -7.31431 20.1706 25.8021
rtibia 9.2826
rfoot -14.123 -18.405
rtoes -0.0257135
lfemur 0.0882234 -31.9534 -7.80895
ltibia -0.00979068
lfoot -14.5651 40.8348
ltoes 1.1631
410
root 0.91796 17.6995 8.44067 8.01181 -0.850619 -9.39817
lowerback -2.4682 2.98991 7.94487
upperback -1.97568 3.84564 0.278867
thorax -0.163251 1.85926 -4.04974
lowerneck -9.10245 -6.42363 -3.93096
upperneck 5.59618 -9.33166 14.0099
head 4.04297 -4.06178 4.31249
rclavicle 5.61567e-014 1.03368e-014
rhumerus -38.9011 37.8194 -104.116
rradius 121.075
rwrist -21.302
rhand -10.4059 -50.5981
rfingers 7.12502
rthumb 15.5927 -79.9896
lclavicle 5.61567e-014 1.03368e-014
lhumerus -45.0991 -49.8285 103.567
lradius 113.519
lwrist 6.96277
lhand -49.4193 -58.5341
lfingers 7.12502
lthumb -22.0317 -29.769
rfemur -7.64796 19.7847 25.6985
rtibia 9.27051
rfoot -14.0807 -18.3991
rtoes 0.106646
lfemur -0.599905 -31.9621 -7.46345
ltibia 0.198211
lfoot -14.3575 40.5195
ltoes 0.923844
411
root 0.928149 17.702 8.41267 8.16448 -0.315523 -9.40945
lowerback -2.39176 2.86017 8.10251
upperback -1.81448 3.66948 0.299686
thorax -0.0535846 1.77882 -4.12205
lowerneck -9.18443 -6.35368 -3.73925
upperneck 5.49583 -9.22163 13.7556
head 3.99392 -4.01621 4.21065
rclavicle -1.74434e-014 -7.95139e-015
rhumerus -37.623 37.444 -103.357
rradius 122.189
rwrist -20.1001
rhand -10.5499 -51.0176
rfingers 7.12502
rthumb 15.454 -80.4198
lclavicle -1.74434e-014 -7.95139e-015
lhumerus -43.6672 -49.8113 102.875
lradius 114.564
lwrist 6.73942
lhand -50.1969 -60.1405
lfingers 7.12502
lthumb -22.7781 -31.4653
rfemur -7.84717 19.2913 25.6151
rtibia 9.16585
rfoot -14.0436 -18.4053
rtoes 0.10298
lfemur -1.13666 -32.1957 -7.20663
ltibia 0.271472
lfoot -14.0295 40.3099
ltoes 0.622123
412
root 0.916071 17.7068 8.39386 8.31057 -0.0634508 -9.33595
lowerback -2.40341 2.82396 7.81711
upperback -1.63651 3.61692 0.331166
thorax 0.112604 1.76582 -3.92677
lowerneck -9.12154 -6.3249 -3.72613
upperneck 5.31414 -9.16759 13.8204
head 3.92682 -3.99655 4.23593
rclavicle 5.97348e-014 -1.82882e-014
rhumerus -36.0196 37.0187 -102.224
rradius 123.263
rwrist -19.8093
rhand -10.3077 -51.8348
rfingers 7.12502
rthumb 15.6873 -81.2189
lclavicle 5.97348e-014 -1.82882e-014
lhumerus -42.301 -49.8428 102.367
lradius 115.632
lwrist 6.6908
lhand -51.1623 -60.8962
lfingers 7.12502
lthumb -23.7042 -32.3379
rfemur -8.07866 19.5389 25.478
rtibia 9.12242
rfoot -14.0445 -18.871
rtoes 0.379208
lfemur -1.45365 -32.6126 -6.99623
ltibia 0.0954697
lfoot -13.7511 40.5108
ltoes 0.430567
413
root 0.902797 17.7114 8.37761 8.44344 0.014468 -9.29481
lowerback -2.36296 2.8549 7.69
upperback -1.49226 3.65778 0.246244
thorax 0.242857 1.79553 -3.93968
lowerneck -9.00243 -6.32683 -3.7763
upperneck 5.14024 -9.15638 13.9631
head 3.86357 -3.99796 4.29342
rclavicle -1.30204e-014 -2.14687e-014
rhumerus -34.9609 36.5573 -101.664
rradius 124.435
rwrist -19.4264
rhand -10.2165 -52.7937
rfingers 7.12502
rthumb 15.7751 -82.1708
lclavicle -1.30204e-014 -2.14687e-014
lhumerus -41.2865 -49.9238 101.952
lradius 116.745
lwrist 6.45382
lhand -52.3311 -61.0726
lfingers 7.12502
lthumb -24.8248 -32.6641
rfemur -8.29126 19.8532 25.3841
rtibia 9.08096
rfoot -14.0172 -19.2465
rtoes 0.267393
lfemur -1.61445 -33.0422 -6.83584
ltibia -0.133733
lfoot -13.6009 40.8822
ltoes 0.370677
414
root 0.899356 17.7148 8.3587 8.56568 0.112061 -9.35358
lowerback -2.27748 2.86095 7.7911
upperback -1.34828 3.66512 0.203857
thorax 0.353974 1.80679 -4.03925
lowerneck -9.0725 -6.28429 -3.67257
upperneck 5.16166 -9.10395 13.8654
head 3.86716 -3.9708 4.24871
rclavicle -1.2424e-015 -6.36111e-015
rhumerus -35.4959 36.444 -102.613
rradius 125.924
rwrist -17.6593
rhand -10.5412 -53.5467
rfingers 7.12502
rthumb 15.4624 -82.9483
lclavicle -1.2424e-015 -6.36111e-015
lhumerus -40.4034 -49.8964 101.588
lradius 117.642
lwrist 6.07376
lhand -53.5449 -61.6944
lfingers 7.12502
lthumb -25.9876 -33.4514
rfemur -8.48202 19.8676 25.3996
rtibia 9.04599
rfoot -13.9944 -19.3396
rtoes 0.202784
lfemur -1.76971 -33.3313 -6.63279
ltibia -0.291817
lfoot -13.5063 41.1324
ltoes 0.338749
